<svg xmlns="http://www.w3.org/2000/svg" xmlns:xlink="http://www.w3.org/1999/xlink" width="26" height="34" viewBox="0 0 26 34"><defs><path id="8kw1a" d="M30.723 598.111v1.455h9.39v-1.455zm-5.055 0v1.455h2.156v-1.455zm5.055-4.333v1.444h9.39v-1.444zm-5.055 0v1.444h2.156v-1.444zm5.055-4.334v1.455h9.39v-1.455zm-5.055 0v1.455h2.156v-1.455zm11.555-11.961l6.194 6.194h-6.194zm-15.889-1.039h14.451v5.78H25.67v1.445h10.115v1.445h8.67v21.674h-23.12zM19.89 575v33.222h26v-24.127l-.203-.225-8.667-8.667-.225-.203z"/></defs><g><g transform="translate(-20 -575)"><use fill="#fff" xlink:href="#8kw1a"/></g></g></svg>